<svg xmlns="http://www.w3.org/2000/svg" class="fss-demo-tag-search-icon" width="32" height="32" viewBox="0 0 32 32">
										<path d="M1.125 13.712q0-2.557 0.992-4.89t2.682-4.023 4.023-2.682 4.89-0.992 4.89 0.992 4.023 2.682 2.682 4.023 0.992 4.89q0 3.933-2.217 7.133l6.132 6.132q0.662 0.662 0.662 1.609 0 0.93-0.679 1.609t-1.609 0.679q-0.965 0-1.609-0.679l-6.132-6.114q-3.2 2.217-7.133 2.217-2.557 0-4.89-0.992t-4.022-2.682-2.682-4.023-0.992-4.89zM5.702 13.712q0 3.307 2.351 5.658t5.658 2.351 5.658-2.351 2.351-5.658-2.351-5.658-5.658-2.351-5.658 2.351-2.351 5.658z"/>
									</svg>